<svg xmlns="http://www.w3.org/2000/svg" viewBox="0 0 215 135"><defs><style>.a,.c{fill:salmon;}.a{opacity:0.05;}.b{fill:#9e9e9e;opacity:0.1;}.d{fill:blue;}</style></defs><title>design-icon</title><path class="a" d="M7.5,3.62V131.38h200V3.62ZM153.64,104.43v18h-18v-18Zm0-17V95h-18V87.45Zm44.43-71.88V78H135.62V15.57Zm0,71.88v35h-35v-35ZM126.19,15.57V122.45H19.3V15.57Z"/><circle class="b" cx="125.01" cy="76.8" r="43.35"/><path class="c" d="M7.5,3.62V122.31H198.07V3.62ZM9.87,119.93V6H123.82V119.93ZM126.19,77.88h25.08V92.48H126.19Zm0,42.06V94.86h25.08v25.08Zm69.51,0H153.64V77.88H195.7ZM151.27,75.5H126.19V6H195.7V75.5Z"/><circle class="d" cx="125.01" cy="76.8" r="5.04"/></svg>