<svg xmlns="http://www.w3.org/2000/svg" viewBox="0 0 215 135"><defs><style>.a{fill:#9e9e9e;}.a,.c,.e{opacity:0.1;}.b,.c{fill:salmon;}.d{fill:blue;}</style></defs><title>development-icon</title><circle class="a" cx="102.53" cy="66.44" r="42.96"/><polygon class="b" points="151.92 20.8 150.26 22.46 194.24 66.44 150.26 110.42 151.92 112.08 197.56 66.44 151.92 20.8"/><polygon class="b" points="53.14 20.8 7.5 66.44 53.14 112.08 54.8 110.42 10.83 66.44 54.8 22.46 53.14 20.8"/><rect class="b" x="44.3" y="65.27" width="116.47" height="2.35" transform="translate(1.9 135.72) rotate(-67.49)"/><polygon class="c" points="128.94 14.31 128.94 14.31 126.99 13.5 126.99 13.5 125.77 13 125.77 13 123.82 12.19 79.25 119.79 81.42 120.69 81.42 120.69 83.37 121.5 83.37 121.5 84.59 122 84.59 122 86.54 122.81 131.11 15.21 128.94 14.31"/><circle class="d" cx="102.53" cy="66.44" r="4.99"/><g class="e"><polygon class="b" points="156.91 16.85 150.31 23.46 194.28 67.44 150.31 111.42 156.91 118.03 207.5 67.44 156.91 16.85"/></g><g class="e"><polygon class="b" points="53.2 20.74 59.17 26.71 19.44 66.44 59.17 106.17 53.2 112.14 7.5 66.44 53.2 20.74"/></g></svg>