<svg xmlns="http://www.w3.org/2000/svg" viewBox="0 0 215 135"><defs><style>.a,.b{fill:salmon;}.a,.d{opacity:0.1;}.c{fill:blue;}.d{fill:#9e9e9e;}</style></defs><title>ux-icon</title><path class="a" d="M143.36,3.53,107.69,39.21l-36-36L7.55,67.34l64.14,64.13,35.68-35.68,36,36L207.5,67.66ZM122.59,67.34,107.36,82.57,92.46,67.66l15.23-15.23Zm13.23,0L114.3,45.82l29.06-29.07,50.91,50.91-50.91,50.91L114,89.18ZM71.69,118.25,20.78,67.34,71.69,16.43l29.39,29.39L79.23,67.66l21.52,21.52Z"/><path class="b" d="M197.55,67.66,138.37,8.48,102.69,44.15l-36-36L7.5,67.34l59.19,59.19,35.68-35.68,36,36ZM66.69,123.19,10.83,67.34,66.69,11.48,101,45.82,79.18,67.66,100.7,89.18Zm36-75.71,19.85,19.85L102.36,87.52,82.51,67.66Zm23.18,19.85L104.35,45.82l34-34,55.86,55.86-55.86,55.86L104,89.18Z"/><circle class="c" cx="192.98" cy="67.5" r="5"/><circle class="d" cx="102.53" cy="67.5" r="42.99"/></svg>